<?xml version="1.0" encoding="UTF-8"?>
<svg id="Layer_2" data-name="Layer 2" xmlns="http://www.w3.org/2000/svg" viewBox="0 0 21.49 11.66">
  <defs>
    <style>
      .cls-1 {
        fill: #3a0256;
      }
    </style>
  </defs>
  <g id="Layer_1-2" data-name="Layer 1">
    <g>
      <g>
        <path class="cls-1" d="M4.21,2.13c0-.65,0-1.31,0-1.96q0-.08.08-.08c.33,0,.66,0,.99,0,.07,0,.07,0,.07.07,0,.46,0,.92,0,1.39q0,.07.07.07c.43,0,.87,0,1.3,0,.07,0,.07,0,.07-.07,0-.46,0-.92,0-1.39,0-.07,0-.07.07-.07.33,0,.67,0,1,0,.07,0,.07,0,.07.07,0,1.31,0,2.63,0,3.94,0,.07,0,.07-.07.07-.33,0-.67,0-1,0-.07,0-.07,0-.07-.07,0-.47,0-.93,0-1.4q0-.07-.07-.07c-.43,0-.86,0-1.29,0-.07,0-.07,0-.07.07,0,.47,0,.93,0,1.4,0,.07,0,.07-.07.07-.33,0-.66,0-.99,0-.07,0-.07,0-.07-.07,0-.66,0-1.31,0-1.97Z"/>
        <path class="cls-1" d="M.8,4.87s.04,0,.06,0c.46,0,.91,0,1.37,0,.04,0,.07.01.1.04.57.54,1.2,1,1.9,1.37.78.41,1.6.7,2.46.86.32.06.64.09.96.12.31.02.61.03.92.02.25,0,.5-.04.75-.06.02,0,.06,0,.08.02.39.27.77.55,1.16.82.01,0,.03.02.04.04-1.66.41-3.32.4-4.96-.07-1.94-.55-3.55-1.61-4.84-3.14v-.02Z"/>
        <path class="cls-1" d="M12.75,4.17s-.05,0-.07,0c-.36,0-.72,0-1.08,0-.05,0-.08-.02-.1-.07-.08-.21-.16-.41-.24-.61-.02-.04-.04-.05-.08-.05-.48,0-.97,0-1.45,0-.05,0-.07.02-.08.06-.08.21-.16.41-.24.62-.02.04-.04.06-.09.06-.35,0-.7,0-1.06,0-.02,0-.04,0-.07,0,0-.03.02-.05.02-.07.56-1.32,1.11-2.64,1.67-3.96.02-.04.04-.05.08-.05.33,0,.67,0,1,0,.04,0,.06.01.08.05.52,1.23,1.04,2.46,1.56,3.69.04.09.08.18.12.27,0,.02.01.03.02.06ZM10.47,1.44s0,0-.01,0c-.15.37-.29.73-.44,1.1h.89c-.15-.37-.29-.74-.44-1.1Z"/>
        <path class="cls-1" d="M15.62,1.37c-.06-.04-.12-.08-.19-.12-.31-.18-.64-.29-1-.28-.07,0-.15.02-.22.05-.17.08-.18.31-.02.41.14.09.3.12.46.16.29.07.58.13.86.25.22.09.42.21.57.39.13.16.19.35.21.56.01.21,0,.41-.09.61-.13.33-.37.54-.69.68-.24.1-.49.15-.75.16-.45.02-.88-.05-1.29-.22-.25-.1-.49-.24-.7-.42-.04-.03-.04-.05,0-.09.19-.22.37-.44.56-.66.03-.04.05-.04.09,0,.29.22.61.38.97.43.17.03.33.04.5,0,.06-.01.11-.03.16-.06.14-.1.15-.3,0-.39-.12-.07-.25-.11-.38-.15-.24-.07-.48-.12-.72-.19-.24-.07-.48-.17-.68-.34-.22-.18-.32-.42-.35-.7-.02-.23.01-.45.11-.66.15-.32.41-.52.74-.64.3-.11.61-.13.92-.12.24.01.48.05.71.13.27.08.51.21.73.38.02.01.04.03.02.06-.18.25-.36.5-.54.76,0,0,0,0-.02.02Z"/>
        <path class="cls-1" d="M2.15,0c.41.01.81.1,1.16.32.21.13.39.3.54.5.03.04.01.06-.02.08-.24.19-.48.37-.72.56-.09.07-.09.07-.17-.02-.18-.2-.39-.34-.65-.38-.47-.06-.87.17-1.03.61-.16.42-.12.83.16,1.2.21.27.49.37.83.34.31-.03.55-.19.74-.41.08-.09.06-.08.15-.02.24.17.48.34.72.51q.06.04.01.09c-.24.32-.53.57-.91.72-.24.09-.48.13-.73.15-.34.02-.67-.03-.98-.17C.58,3.78.18,3.27.04,2.56c-.11-.55-.02-1.07.27-1.55C.64.48,1.11.17,1.71.05c.15-.03.3-.04.44-.05Z"/>
        <path class="cls-1" d="M10.83,8.05c.02-.11.04-.2.05-.29.05-.3.11-.59.16-.89,0-.04.02-.06.06-.07.58-.2,1.13-.47,1.65-.79.51-.31.98-.68,1.41-1.09.03-.03.07-.05.12-.05.45,0,.9,0,1.35,0,.02,0,.04,0,.07,0,0,0,0,.01,0,.02-.31.38-.65.73-1.01,1.05-1.12,1-2.41,1.7-3.87,2.11Z"/>
        <g>
          <path class="cls-1" d="M16.53.89c.29,0,.52.23.52.52,0,.29-.24.53-.52.53-.29,0-.52-.23-.52-.52,0-.29.23-.52.52-.52ZM16.53,1.02c-.22,0-.38.17-.38.38,0,.22.16.39.38.39.22,0,.38-.16.39-.38,0-.22-.16-.39-.38-.39Z"/>
          <path class="cls-1" d="M16.38,1.64v-.48h.14c.05,0,.09,0,.11,0s.04.01.05.02c.02.01.03.03.04.05s.01.04.01.07c0,.04,0,.07-.03.09s-.04.04-.08.05l.13.19h-.15l-.11-.19v.19h-.12ZM16.5,1.38h.02s.05,0,.06-.01.02-.02.02-.05c0-.02,0-.04-.02-.05s-.03-.02-.06-.02h-.03v.13Z"/>
        </g>
      </g>
      <g>
        <path class="cls-1" d="M8.24,9.35h.17l.36.85h-.19l-.08-.19h-.36l-.08.19h-.19l.36-.85ZM8.44,9.84l-.11-.27-.11.27h.22Z"/>
        <path class="cls-1" d="M8.83,9.88h0c0-.19.14-.34.34-.34.12,0,.2.04.26.11l-.11.12s-.08-.07-.15-.07c-.09,0-.16.08-.16.18h0c0,.1.06.18.16.18.06,0,.1-.03.15-.07l.11.11c-.06.07-.13.12-.26.12-.19,0-.34-.15-.34-.33Z"/>
        <path class="cls-1" d="M9.5,9.88h0c0-.19.14-.34.34-.34.12,0,.2.04.26.11l-.11.12s-.08-.07-.15-.07c-.09,0-.16.08-.16.18h0c0,.1.06.18.16.18.06,0,.1-.03.15-.07l.11.11c-.06.07-.13.12-.26.12-.19,0-.34-.15-.34-.33Z"/>
        <path class="cls-1" d="M10.22,9.55h.18v.13c.04-.09.1-.15.21-.14v.19h0c-.12,0-.2.07-.2.23v.24h-.18v-.65Z"/>
        <path class="cls-1" d="M10.67,9.88h0c0-.19.13-.34.32-.34.22,0,.31.17.31.35,0,.01,0,.03,0,.05h-.45c.02.08.08.13.16.13.06,0,.11-.02.16-.07l.1.09c-.06.07-.15.12-.26.12-.19,0-.34-.14-.34-.33ZM11.13,9.82c-.01-.08-.06-.14-.14-.14s-.13.05-.14.14h.28Z"/>
        <path class="cls-1" d="M11.41,9.87h0c0-.22.14-.34.29-.34.1,0,.16.04.2.1v-.32h.18v.88h-.18v-.09c-.04.06-.11.1-.2.1-.15,0-.29-.12-.29-.33ZM11.91,9.87h0c0-.11-.07-.18-.16-.18s-.16.07-.16.18h0c0,.11.07.18.16.18s.16-.07.16-.18Z"/>
        <path class="cls-1" d="M12.26,9.32h.19v.16h-.19v-.16ZM12.26,9.55h.18v.65h-.18v-.65Z"/>
        <path class="cls-1" d="M12.65,10.01v-.31h-.08v-.16h.08v-.17h.18v.17h.15v.16h-.15v.28s.02.06.06.06c.03,0,.06,0,.09-.02v.15s-.08.04-.14.04c-.11,0-.19-.04-.19-.19Z"/>
        <path class="cls-1" d="M13.07,9.88h0c0-.19.13-.34.32-.34.22,0,.31.17.31.35,0,.01,0,.03,0,.05h-.45c.02.08.08.13.16.13.06,0,.11-.02.16-.07l.1.09c-.06.07-.15.12-.26.12-.19,0-.34-.14-.34-.33ZM13.52,9.82c-.01-.08-.06-.14-.14-.14s-.13.05-.14.14h.28Z"/>
        <path class="cls-1" d="M13.81,9.87h0c0-.22.14-.34.29-.34.1,0,.16.04.2.1v-.32h.18v.88h-.18v-.09c-.04.06-.11.1-.2.1-.15,0-.29-.12-.29-.33ZM14.31,9.87h0c0-.11-.07-.18-.16-.18s-.16.07-.16.18h0c0,.11.07.18.16.18s.16-.07.16-.18Z"/>
        <path class="cls-1" d="M15,9.78h0c0-.24.18-.44.44-.44.16,0,.25.05.33.13l-.12.14c-.07-.06-.13-.1-.22-.1-.14,0-.24.12-.24.26h0c0,.15.1.27.24.27.1,0,.16-.04.22-.1l.12.12c-.09.09-.18.15-.35.15-.25,0-.43-.19-.43-.43Z"/>
        <path class="cls-1" d="M15.86,9.88h0c0-.19.15-.34.35-.34s.35.15.35.33h0c0,.19-.15.34-.35.34s-.35-.15-.35-.33ZM16.38,9.88h0c0-.1-.07-.18-.17-.18s-.17.08-.17.18h0c0,.1.07.18.17.18s.17-.08.17-.18Z"/>
        <path class="cls-1" d="M16.69,9.55h.18v.09c.04-.05.1-.1.19-.1.14,0,.22.09.22.24v.42h-.18v-.36c0-.09-.04-.13-.11-.13s-.11.04-.11.13v.36h-.18v-.65Z"/>
        <path class="cls-1" d="M17.47,10.01v-.31h-.08v-.16h.08v-.17h.18v.17h.15v.16h-.15v.28s.02.06.06.06c.03,0,.06,0,.09-.02v.15s-.08.04-.14.04c-.11,0-.19-.04-.19-.19Z"/>
        <path class="cls-1" d="M17.94,9.55h.18v.13c.04-.09.1-.15.21-.14v.19h0c-.12,0-.2.07-.2.23v.24h-.18v-.65Z"/>
        <path class="cls-1" d="M18.38,10.01h0c0-.14.11-.21.26-.21.07,0,.11.01.16.03h0c0-.09-.05-.13-.14-.13-.07,0-.12.01-.18.03l-.05-.14c.07-.03.14-.05.25-.05.1,0,.17.03.22.07.05.05.07.12.07.21v.37h-.18v-.07s-.11.08-.2.08c-.12,0-.22-.07-.22-.2ZM18.8,9.97v-.03s-.07-.02-.12-.02c-.08,0-.13.03-.13.09h0c0,.05.04.08.1.08.09,0,.14-.05.14-.11Z"/>
        <path class="cls-1" d="M19.1,9.88h0c0-.19.14-.34.34-.34.12,0,.2.04.26.11l-.11.12s-.08-.07-.15-.07c-.09,0-.16.08-.16.18h0c0,.1.06.18.16.18.06,0,.1-.03.15-.07l.11.11c-.06.07-.13.12-.26.12-.19,0-.34-.15-.34-.33Z"/>
        <path class="cls-1" d="M19.85,10.01v-.31h-.08v-.16h.08v-.17h.18v.17h.15v.16h-.15v.28s.02.06.06.06c.03,0,.06,0,.09-.02v.15s-.08.04-.14.04c-.11,0-.19-.04-.19-.19Z"/>
        <path class="cls-1" d="M20.27,9.88h0c0-.19.15-.34.35-.34s.35.15.35.33h0c0,.19-.15.34-.35.34s-.35-.15-.35-.33ZM20.79,9.88h0c0-.1-.07-.18-.17-.18s-.17.08-.17.18h0c0,.1.07.18.17.18s.17-.08.17-.18Z"/>
        <path class="cls-1" d="M21.1,9.55h.18v.13c.04-.09.1-.15.21-.14v.19h0c-.12,0-.2.07-.2.23v.24h-.18v-.65Z"/>
        <path class="cls-1" d="M7.92,11.22h0c0-.24.18-.44.44-.44.16,0,.25.05.33.13l-.12.14c-.07-.06-.13-.1-.22-.1-.14,0-.24.12-.24.26h0c0,.15.1.27.24.27.1,0,.16-.04.22-.1l.12.12c-.09.09-.18.15-.35.15-.25,0-.43-.19-.43-.43Z"/>
        <path class="cls-1" d="M8.84,10.8h.19v.33h.34v-.33h.19v.84h-.19v-.34h-.34v.34h-.19v-.84Z"/>
        <path class="cls-1" d="M10.05,10.79h.17l.36.85h-.19l-.08-.19h-.36l-.08.19h-.19l.36-.85ZM10.24,11.29l-.11-.27-.11.27h.22Z"/>
        <path class="cls-1" d="M10.64,11.52l.11-.13c.08.06.16.1.25.1.08,0,.12-.03.12-.08h0s-.03-.07-.17-.11c-.17-.04-.28-.09-.28-.26h0c0-.16.12-.26.3-.26.12,0,.23.04.31.11l-.1.14c-.07-.05-.15-.08-.22-.08s-.11.03-.11.07h0c0,.06.04.08.18.11.17.04.27.11.27.25h0c0,.17-.13.26-.31.26-.13,0-.26-.04-.36-.13Z"/>
        <path class="cls-1" d="M11.45,11.45h.2v.19h-.2v-.19Z"/>
        <path class="cls-1" d="M11.74,11.32h0c0-.19.14-.34.34-.34.12,0,.2.04.26.11l-.11.12s-.08-.07-.15-.07c-.09,0-.16.08-.16.18h0c0,.1.06.18.16.18.06,0,.1-.03.15-.07l.11.11c-.06.07-.13.12-.26.12-.19,0-.34-.15-.34-.33Z"/>
        <path class="cls-1" d="M12.41,11.32h0c0-.19.15-.34.35-.34s.35.15.35.33h0c0,.19-.15.34-.35.34s-.35-.15-.35-.33ZM12.93,11.32h0c0-.1-.07-.18-.17-.18s-.17.08-.17.18h0c0,.1.07.18.17.18s.17-.08.17-.18Z"/>
        <path class="cls-1" d="M13.21,11.45h.2v.19h-.2v-.19Z"/>
        <path class="cls-1" d="M13.56,11.41v-.42h.18v.36c0,.09.04.13.11.13s.11-.04.11-.13v-.36h.18v.65h-.18v-.09c-.04.05-.1.1-.19.1-.14,0-.22-.09-.22-.24Z"/>
        <path class="cls-1" d="M14.31,10.76h.18v.47l.21-.23h.22l-.25.25.25.39h-.21l-.17-.27-.07.07v.2h-.18v-.88Z"/>
      </g>
    </g>
  </g>
</svg>