<?xml version="1.0" encoding="UTF-8"?>
<svg id="Layer_2" data-name="Layer 2" xmlns="http://www.w3.org/2000/svg" viewBox="0 0 49.58 10.7">
  <defs>
    <style>
      .cls-1 {
        fill: #8031a6;
      }

      .cls-2 {
        fill: #02adc6;
      }
    </style>
  </defs>
  <g id="Layer_1-2" data-name="Layer 1">
    <g>
      <path class="cls-1" d="M14.32,5.23h-.64c-.12-.51-.4-.91-.86-.91-.54,0-.92.58-.92,1.17,0,.89.48,1.32,1.04,1.32.45,0,.64-.46.74-.94h.64v.97c-.33.4-.84.61-1.47.61-1.14,0-1.83-.92-1.83-1.93s.82-1.93,1.7-1.93c.41,0,.71.12.96.38l.25-.31h.4v1.57Z"/>
      <path class="cls-1" d="M15.85,7.42c-.84,0-1.3-.51-1.3-1.39s.46-1.39,1.3-1.39,1.3.53,1.3,1.39-.46,1.39-1.3,1.39ZM15.85,5.15c-.35,0-.56.23-.56.89s.21.87.56.87.56-.23.56-.87-.21-.89-.56-.89Z"/>
      <path class="cls-1" d="M19.89,7.37h-.73v-1.63c0-.18,0-.3-.08-.4-.07-.1-.18-.15-.35-.15-.18,0-.3.07-.38.16-.08.12-.12.26-.12.46v1.53h-.73v-2.14h-.31v-.51h.76l.13.35c.18-.23.46-.4.86-.4.31,0,.56.08.73.26.16.18.23.41.23.71v1.75h-.02Z"/>
      <path class="cls-1" d="M21.18,7.42c-.33,0-.69-.07-.97-.18l.05-.54c.23.13.61.23.87.23.28,0,.45-.08.45-.26,0-.46-1.39-.18-1.39-1.15,0-.53.45-.84,1.11-.84.25,0,.56.05.74.12v.51c-.18-.08-.43-.13-.69-.13s-.48.1-.48.28c0,.43,1.39.18,1.39,1.15,0,.56-.46.84-1.07.84v-.02Z"/>
      <path class="cls-1" d="M24.2,7.24c-.15.1-.41.18-.66.18s-.48-.08-.61-.21c-.13-.15-.18-.35-.18-.69v-1.3h-.41v-.51h.41v-.66l.73-.18v.84h.61v.51h-.61v1.29c0,.25.07.4.3.4.15,0,.33-.07.45-.15v.49h-.02Z"/>
      <path class="cls-1" d="M26.12,5.24h-.21c-.16,0-.3.05-.38.15-.1.13-.13.3-.13.53v1.47h-.73v-2.14h-.31v-.51h.76l.13.38c.13-.26.4-.43.71-.43h.16v.58-.02Z"/>
      <path class="cls-1" d="M29.13,7.26c-.12.08-.3.15-.49.15-.21,0-.4-.08-.48-.28-.18.18-.45.3-.78.3s-.56-.08-.73-.26c-.16-.18-.23-.41-.23-.71v-1.75h.73v1.63c0,.18,0,.3.08.4.07.1.18.15.35.15.18,0,.3-.07.38-.16.08-.12.12-.26.12-.46v-1.53h.73v2.05c0,.12.05.16.13.16.07,0,.16-.03.21-.07l-.03.41.02-.02Z"/>
      <path class="cls-1" d="M31.91,5.82h-.51c-.08-.38-.31-.63-.69-.63-.43,0-.74.38-.74.81,0,.46.33.94.78.94.35,0,.58-.31.66-.66h.51v.63c-.26.28-.68.51-1.17.51-.91,0-1.52-.56-1.52-1.39s.59-1.39,1.42-1.39c.33,0,.58.08.76.28l.2-.23h.31v1.12Z"/>
      <path class="cls-1" d="M34.01,7.24c-.15.1-.41.18-.66.18s-.48-.08-.61-.21c-.13-.15-.18-.35-.18-.69v-1.3h-.41v-.51h.41v-.66l.73-.18v.84h.61v.51h-.61v1.29c0,.25.07.4.3.4.15,0,.33-.07.45-.15v.49h-.02Z"/>
      <path class="cls-1" d="M35.56,7.26c-.1.07-.28.13-.48.13-.23,0-.38-.07-.46-.18-.07-.1-.1-.25-.1-.43v-1.57h-.31v-.51h1.06v2.05c0,.12.05.16.13.16.07,0,.16-.03.21-.07v.41h-.05ZM34.87,4.39c-.23,0-.41-.18-.41-.41s.18-.41.41-.41.4.18.4.41-.16.41-.4.41Z"/>
      <path class="cls-1" d="M37.08,7.42c-.84,0-1.3-.51-1.3-1.39s.46-1.39,1.3-1.39,1.3.53,1.3,1.39-.46,1.39-1.3,1.39ZM37.08,5.15c-.35,0-.56.23-.56.89s.21.87.56.87.56-.23.56-.87-.21-.89-.56-.89Z"/>
      <path class="cls-1" d="M41.13,7.37h-.73v-1.63c0-.18,0-.3-.08-.4-.07-.1-.18-.15-.35-.15-.18,0-.3.07-.38.16-.08.12-.12.26-.12.46v1.53h-.73v-2.14h-.31v-.51h.76l.13.35c.18-.23.46-.4.86-.4.31,0,.56.08.73.26.16.18.23.41.23.71v1.75h-.02Z"/>
      <path class="cls-1" d="M42.6,7.26c-.1.07-.28.13-.48.13-.23,0-.38-.07-.46-.18-.07-.1-.1-.25-.1-.43v-2.66h-.31v-.51h1.06v3.15c0,.12.05.16.13.16.07,0,.16-.03.21-.07v.41l-.05-.02Z"/>
      <path class="cls-1" d="M44.1,7.26c-.1.07-.28.13-.48.13-.23,0-.38-.07-.46-.18-.07-.1-.1-.25-.1-.43v-1.57h-.31v-.51h1.06v2.05c0,.12.05.16.13.16.07,0,.16-.03.21-.07v.41h-.05ZM43.41,4.39c-.23,0-.41-.18-.41-.41s.18-.41.41-.41.4.18.4.41-.16.41-.4.41Z"/>
      <path class="cls-1" d="M46.87,7.37h-.73v-1.63c0-.18,0-.3-.08-.4-.07-.1-.18-.15-.35-.15-.18,0-.3.07-.38.16-.08.12-.12.26-.12.46v1.53h-.73v-2.14h-.31v-.51h.76l.13.35c.18-.23.46-.4.86-.4.31,0,.56.08.73.26.16.18.23.41.23.71v1.75h-.02Z"/>
      <path class="cls-1" d="M49.25,6.27h-1.39c.05.43.31.64.73.64.31,0,.64-.12.87-.26l-.03.49c-.25.18-.64.28-.99.28-.86,0-1.32-.54-1.32-1.37,0-.87.51-1.4,1.25-1.4s1.2.48,1.2,1.22c0,.28-.08.4-.33.4ZM48.36,5.15c-.28,0-.49.21-.51.71h.97s.05,0,.05-.05c0-.41-.2-.66-.51-.66Z"/>
      <path class="cls-2" d="M3.41,9.81c-.51-.07-1.09-.13-1.76-.15V3.94h1.76v5.87ZM5.24,10.19c-.36-.1-.76-.2-1.22-.28V3.94h1.22v6.25ZM6.71,10.59c-.25-.05-.51-.13-.78-.21V3.93h.78v6.66ZM8.07,10.7h-.56V3.94h.56v6.76ZM9.2,10.49s-.2.08-.33.12V3.94h.33v6.55ZM9.02,2.84c0,.46.16.71.16.71H1.72s.16-.25.16-.71-.46-.71-.46-.71h8.02s-.43.25-.43.71h.02ZM10.52,1.65H.35v-.38h10.18v.38ZM10.97.96H0v-.96h10.97v.96Z"/>
    </g>
  </g>
</svg>