<?xml version="1.0" encoding="UTF-8"?>
<svg id="Layer_1" data-name="Layer 1" xmlns="http://www.w3.org/2000/svg" viewBox="0 0 800 800">
  <defs>
    <style>
      .cls-1 {
        fill: #011c41;
      }

      .cls-2 {
        fill: #fff;
      }

      .cls-3 {
        fill: #002a42;
      }
    </style>
  </defs>
  <polygon class="cls-3" points="183.28 625.34 201.49 625.34 192.37 604.12 183.28 625.34"/>
  <path class="cls-1" d="M243.41,488.25c-5.58,0-9.58,3.38-10.45,8.8h20.82c-.86-5.34-4.87-8.8-10.37-8.8Z"/>
  <polygon class="cls-1" points="413.19 38.83 410.44 31.88 407.3 38.66 413.19 38.83"/>
  <path class="cls-1" d="M488.62,48.47l3.3.86c1.24.32,2.25.3,3.02-.07.77-.37,1.28-1.03,1.53-1.99.25-.97.13-1.8-.36-2.48-.49-.68-1.36-1.19-2.61-1.51l-3.3-.86-1.58,6.05Z"/>
  <path class="cls-1" d="M155.58,509.14c0,3.06,2.59,5.11,6.91,5.11,4.09,0,7.62-1.89,9.03-5.74v-4.32h-8.4c-5.74,0-7.54,2.12-7.54,4.95Z"/>
  <path class="cls-1" d="M348.9,489.03c-6.13,0-10.84,4.4-10.84,11.71s4.71,11.7,10.84,11.7,10.76-4.4,10.76-11.7-4.64-11.71-10.76-11.71Z"/>
  <path class="cls-3" d="M6.82,431.08h57.97c-.72-9-1.11-18.1-1.11-27.29,0-185.58,150.44-336.03,336.03-336.03s336.03,150.45,336.03,336.03c0,9.19-.39,18.28-1.11,27.29h58.55c.8-10.29,1.22-20.65,1.22-31.08,0-105.35-41.02-204.39-115.52-278.88C604.39,46.63,505.35,5.6,400,5.6S195.61,46.63,121.12,121.12C46.63,195.61,5.6,294.65,5.6,400c0,10.43.42,20.79,1.22,31.08ZM559.38,64.58l2.14,1.08.88,12.09,10.15-6.53,2.14,1.08-7.04,14.03-2.46-1.24,4.66-9.3-8.48,5.36-1.16-.58-.8-9.88-4.62,9.16-2.48-1.25,7.06-14.01ZM533.38,61.84c.45-1.07,1.06-1.98,1.83-2.72.76-.74,1.64-1.3,2.62-1.67s2.03-.54,3.14-.52,2.22.28,3.33.75c1.13.48,2.09,1.1,2.87,1.87.79.77,1.39,1.64,1.81,2.6s.63,1.98.64,3.04-.22,2.13-.67,3.21c-.45,1.07-1.06,1.98-1.83,2.73s-1.64,1.3-2.62,1.67c-.98.37-2.02.54-3.12.51-1.1-.03-2.21-.27-3.32-.74-1.13-.48-2.09-1.1-2.88-1.87s-1.4-1.64-1.82-2.6c-.42-.96-.63-1.98-.64-3.04s.22-2.13.67-3.21ZM514.14,54.91c.39-1.1.94-2.05,1.66-2.84.72-.79,1.56-1.4,2.52-1.83.96-.43,1.99-.66,3.08-.7,1.09-.04,2.21.15,3.35.55,1.21.43,2.25,1.02,3.1,1.79.85.77,1.48,1.68,1.89,2.74l-2.36,1.04c-.33-.77-.78-1.41-1.34-1.93-.56-.52-1.23-.92-2-1.19-.77-.27-1.53-.4-2.26-.37-.73.03-1.41.19-2.05.49s-1.2.72-1.68,1.26-.86,1.19-1.13,1.96c-.27.76-.38,1.5-.35,2.23.04.73.21,1.4.52,2.04.31.63.74,1.19,1.29,1.67.55.48,1.22.86,1.99,1.13.77.27,1.54.38,2.31.33.76-.06,1.52-.29,2.26-.69l1.18,2.32c-.97.56-2.04.88-3.19.95-1.15.07-2.34-.11-3.56-.54-1.13-.4-2.11-.95-2.94-1.67-.83-.71-1.49-1.54-1.96-2.47-.47-.93-.74-1.94-.81-3.01s.09-2.15.48-3.25ZM503.16,57.95c.17-.54.47-.92.91-1.14.44-.22.9-.25,1.39-.1.49.15.85.44,1.09.86.24.43.28.91.12,1.45-.16.51-.46.89-.91,1.12s-.91.27-1.4.12-.85-.44-1.09-.88c-.24-.44-.28-.92-.12-1.43ZM488,39.3l6.25,1.63c1.35.35,2.44.87,3.29,1.55.85.68,1.43,1.5,1.74,2.45.31.95.32,1.98.03,3.09-.29,1.11-.8,2-1.53,2.67-.73.67-1.63,1.09-2.7,1.26-.08.01-.17.01-.25.02l2.19,5.89-3.04-.79-1.94-5.26c-.2-.04-.39-.08-.59-.13l-3.43-.89-1.15,4.43-2.82-.73,3.96-15.19ZM462.04,41.87c.22-1.14.64-2.16,1.24-3.04.6-.88,1.34-1.6,2.23-2.17.89-.56,1.88-.95,2.97-1.14,1.09-.2,2.23-.18,3.42.05,1.2.24,2.27.65,3.19,1.24.93.59,1.7,1.32,2.3,2.18.61.86,1.02,1.81,1.25,2.85.22,1.04.22,2.13,0,3.28-.22,1.14-.64,2.16-1.24,3.05-.6.89-1.35,1.61-2.23,2.17-.89.56-1.87.94-2.95,1.13-1.08.2-2.22.18-3.41-.05-1.2-.24-2.27-.65-3.2-1.25-.93-.59-1.71-1.32-2.31-2.18-.61-.86-1.02-1.81-1.25-2.85s-.22-2.13,0-3.28ZM444.64,31.44l13.19,1.83-.34,2.44-5.15-.71-1.81,13.1-2.89-.4,1.81-13.1-5.15-.71.34-2.44ZM423.95,37.39c.1-1.16.4-2.22.9-3.16.5-.95,1.16-1.75,1.98-2.41s1.75-1.14,2.8-1.45c1.05-.31,2.17-.41,3.38-.31,1.28.11,2.43.43,3.45.96,1.02.53,1.86,1.26,2.51,2.18l-2.03,1.6c-.51-.66-1.11-1.17-1.78-1.54-.67-.36-1.42-.58-2.24-.65-.82-.07-1.58,0-2.28.21-.7.21-1.32.54-1.86.99s-.98,1-1.31,1.64c-.33.65-.53,1.37-.6,2.18-.07.8,0,1.55.22,2.25.22.69.56,1.31,1.01,1.84.46.53,1.01.96,1.67,1.29s1.39.52,2.21.59c.82.07,1.59-.02,2.32-.26.73-.25,1.4-.66,2.02-1.23l1.72,1.95c-.8.79-1.75,1.36-2.85,1.72-1.1.36-2.29.48-3.59.37-1.19-.1-2.28-.39-3.27-.88-.99-.48-1.82-1.12-2.52-1.9-.69-.79-1.2-1.69-1.54-2.71-.33-1.02-.45-2.11-.35-3.27ZM409.11,28.93l2.87.08,6.63,15.89-3.05-.09-1.46-3.67-7.85-.22-1.66,3.59-3-.09,7.51-15.49ZM389.39,28.96c1.39-.04,2.59.15,3.59.57,1.01.42,1.79,1.04,2.35,1.86.56.82.86,1.81.89,2.96.03,1.15-.21,2.15-.72,2.99-.51.84-1.26,1.5-2.24,1.97-.07.04-.16.06-.23.09l3.75,5.05-3.14.09-3.33-4.51c-.2.02-.4.04-.61.04l-3.54.1.13,4.57-2.91.08-.44-15.69,6.45-.18ZM375.86,29.51l.2,2.46-5.18.42,1.07,13.18-2.91.24-1.07-13.18-5.18.42-.2-2.46,13.27-1.08ZM344.05,32.92l10.02,9.35-1.45-10.53,2.86-.39,2.14,15.55-2.38.33-10.02-9.35,1.45,10.53-2.87.39-2.14-15.55,2.38-.33ZM318.69,42.31c.22-1.04.63-1.99,1.23-2.86.6-.86,1.37-1.59,2.3-2.19s1.99-1.02,3.18-1.26c1.2-.24,2.34-.27,3.43-.08,1.08.19,2.07.57,2.96,1.13.89.56,1.64,1.28,2.24,2.15.6.88,1.02,1.89,1.25,3.03s.24,2.24.02,3.29c-.21,1.05-.62,2-1.23,2.86-.6.85-1.37,1.58-2.29,2.18s-1.98,1.02-3.17,1.26c-1.2.24-2.35.27-3.44.08-1.09-.19-2.08-.57-2.97-1.13-.89-.56-1.64-1.28-2.24-2.15s-1.02-1.89-1.25-3.03-.24-2.24-.02-3.28ZM298.69,47.42c.15-1.06.5-2.04,1.05-2.94s1.27-1.67,2.15-2.31c.88-.64,1.9-1.12,3.07-1.43,1.24-.33,2.43-.42,3.57-.26,1.14.15,2.17.56,3.1,1.21l-1.37,2.19c-.71-.45-1.44-.73-2.2-.84-.76-.12-1.53-.07-2.33.14s-1.49.53-2.07.97c-.59.43-1.06.95-1.42,1.56-.36.6-.58,1.27-.68,1.99s-.04,1.47.17,2.25c.21.78.53,1.46.97,2.04.44.58.96,1.04,1.58,1.39.61.35,1.28.57,2,.65s1.49.02,2.28-.19c.8-.21,1.49-.55,2.09-1.03.6-.48,1.09-1.09,1.48-1.84l2.28,1.25c-.49,1.01-1.19,1.87-2.1,2.58-.91.71-2,1.23-3.25,1.56-1.16.31-2.28.4-3.37.28s-2.09-.43-3.01-.94-1.7-1.18-2.36-2.03c-.66-.85-1.14-1.83-1.44-2.96-.3-1.13-.37-2.22-.22-3.28ZM289.82,45.25l.76,2.32-8.12,2.65,1.27,3.88,7.2-2.35.74,2.28-7.2,2.35,1.34,4.11,8.42-2.75.76,2.32-11.19,3.65-4.87-14.92,10.89-3.56ZM271.66,51.36l.88,2.28-7.97,3.08,1.72,4.45,7.07-2.73.89,2.3-7.07,2.73,2.16,5.61-2.72,1.05-5.65-14.64,10.69-4.12ZM248.09,60.97l12.91,11.4-2.78,1.25-2.92-2.67-7.16,3.23.08,3.95-2.74,1.23v-17.21s2.6-1.18,2.6-1.18ZM224.79,74.73c.08-.84.43-1.66,1.07-2.47.63-.81,1.59-1.54,2.86-2.2.84-.43,1.72-.76,2.65-.97.93-.21,1.81-.28,2.62-.2l.23,2.43c-.82-.05-1.6.01-2.36.18-.76.17-1.44.41-2.05.72-.72.37-1.25.76-1.61,1.16-.35.4-.56.8-.62,1.18s0,.76.19,1.12c.22.42.55.69.98.79.43.1.93.1,1.49,0,.56-.1,1.17-.24,1.84-.41s1.34-.32,2.02-.46c.68-.13,1.33-.19,1.96-.16.63.03,1.22.2,1.76.53.55.32,1.01.85,1.39,1.58.39.74.54,1.53.46,2.37-.08.84-.44,1.67-1.08,2.48-.64.81-1.6,1.55-2.87,2.21-1.09.56-2.21.95-3.37,1.15s-2.16.21-2.99.02l-.15-2.47c.79.15,1.66.16,2.64.02.97-.13,1.89-.43,2.75-.87.73-.38,1.28-.76,1.65-1.16.37-.39.59-.78.66-1.16s.02-.75-.16-1.09c-.22-.42-.55-.69-.99-.79-.44-.1-.94-.1-1.51,0-.56.1-1.17.23-1.83.41-.66.17-1.33.32-2.01.45-.68.13-1.34.17-1.97.14-.63-.03-1.22-.21-1.78-.53-.55-.32-1.02-.85-1.41-1.59-.39-.76-.55-1.55-.47-2.39Z"/>
  <path class="cls-1" d="M537.16,68.98c.52.51,1.14.92,1.87,1.23.73.31,1.46.47,2.18.48s1.41-.11,2.06-.39c.65-.27,1.23-.66,1.74-1.16.51-.5.93-1.13,1.24-1.87s.47-1.48.48-2.2c0-.72-.13-1.41-.39-2.06-.26-.65-.65-1.23-1.16-1.74-.51-.51-1.14-.92-1.87-1.22-.73-.31-1.45-.47-2.17-.48-.72-.01-1.41.12-2.06.38-.66.27-1.24.65-1.75,1.16s-.93,1.13-1.24,1.87c-.31.73-.47,1.46-.47,2.19,0,.73.12,1.42.38,2.07.26.65.65,1.23,1.16,1.74Z"/>
  <path class="cls-1" d="M386.09,37.78l3.41-.1c1.28-.04,2.25-.34,2.88-.91.63-.57.94-1.35.91-2.34-.03-1-.37-1.76-1.04-2.28-.67-.52-1.64-.76-2.93-.73l-3.41.1.18,6.25Z"/>
  <path class="cls-3" d="M759.63,562.37H40.37c19.36,42.84,46.51,82.27,80.75,116.51,74.49,74.49,173.53,115.51,278.88,115.51s204.39-41.02,278.88-115.51c34.24-34.24,61.38-73.67,80.75-116.51ZM469.19,595.13l16.13,37.39,16.3-37.39h9.01l-21.13,48.5h-8.87l-21.2-48.5h9.77ZM209.34,643.64l-4.82-11.22h-24.26l-4.8,11.22h-9.28l21.83-48.5h8.87l21.9,48.5h-9.42ZM269.97,621.6c-1.66,2.59-4.03,4.57-7.1,5.96-3.07,1.39-6.76,2.08-11.05,2.08h-10.95v14h-9.01v-48.5h19.96c4.3,0,7.98.69,11.05,2.08,3.07,1.39,5.44,3.37,7.1,5.96,1.66,2.59,2.49,5.66,2.49,9.21s-.83,6.63-2.49,9.22ZM326.51,621.6c-1.66,2.59-4.03,4.57-7.1,5.96s-6.76,2.08-11.05,2.08h-10.95v14h-9.01v-48.5h19.96c4.3,0,7.98.69,11.05,2.08s5.44,3.37,7.1,5.96c1.66,2.59,2.49,5.66,2.49,9.21s-.83,6.63-2.49,9.22ZM366.78,629.42c-.62.03-1.23.08-1.87.08h-10.95v14.14h-9.01v-48.5h19.96c4.3,0,7.98.69,11.05,2.08,3.07,1.39,5.44,3.37,7.1,5.96,1.66,2.59,2.49,5.66,2.49,9.21s-.83,6.62-2.49,9.18c-1.66,2.56-4.03,4.53-7.1,5.89-.23.1-.49.17-.72.27l11.15,15.91h-9.7l-9.9-14.21ZM449.37,629.36c-1.29,3.05-3.12,5.68-5.47,7.9-2.35,2.22-5.12,3.95-8.28,5.2-3.16,1.25-6.62,1.87-10.36,1.87s-7.28-.62-10.46-1.87c-3.19-1.25-5.96-2.99-8.32-5.23-2.35-2.24-4.18-4.87-5.47-7.9-1.29-3.02-1.94-6.34-1.94-9.94s.65-6.92,1.94-9.94c1.29-3.02,3.12-5.66,5.47-7.9,2.36-2.24,5.13-3.98,8.32-5.23,3.19-1.25,6.65-1.87,10.39-1.87s7.26.62,10.43,1.87c3.16,1.25,5.93,2.99,8.28,5.23,2.36,2.24,4.18,4.87,5.47,7.9,1.29,3.03,1.94,6.34,1.94,9.94s-.65,6.93-1.94,9.98ZM559.06,643.64h-36.38v-48.5h35.41v7.55h-26.4v12.61h23.42v7.41h-23.42v13.37h27.37v7.55ZM620.38,632.1c-2.22,3.63-5.31,6.46-9.29,8.49-3.97,2.03-8.59,3.05-13.86,3.05h-21.2v-48.5h21.2c5.27,0,9.89,1.02,13.86,3.05,3.97,2.03,7.07,4.85,9.29,8.45,2.22,3.6,3.33,7.85,3.33,12.75s-1.11,9.09-3.33,12.72Z"/>
  <path class="cls-1" d="M322.44,47.08c.41.6.9,1.1,1.48,1.5.58.39,1.23.65,1.94.78.71.13,1.46.12,2.23-.04.78-.16,1.47-.43,2.07-.83.61-.4,1.1-.89,1.48-1.48.38-.59.65-1.24.79-1.94.14-.71.13-1.46-.03-2.25-.16-.79-.44-1.49-.84-2.08-.4-.6-.89-1.09-1.48-1.48-.58-.39-1.23-.65-1.94-.78s-1.46-.12-2.23.04c-.78.16-1.46.43-2.06.83-.6.4-1.09.89-1.48,1.48s-.66,1.24-.8,1.95c-.14.71-.13,1.46.03,2.25.16.78.44,1.47.84,2.07Z"/>
  <polygon class="cls-1" points="248.11 71.69 253.47 69.27 247.96 64.22 248.11 71.69"/>
  <path class="cls-3" d="M606.28,604.83c-2.66-1.39-5.81-2.08-9.46-2.08h-11.78v33.26h11.78c3.65,0,6.8-.69,9.46-2.08,2.66-1.39,4.71-3.33,6.17-5.82,1.45-2.49,2.18-5.41,2.18-8.73s-.73-6.29-2.18-8.77c-1.45-2.47-3.51-4.4-6.17-5.79Z"/>
  <path class="cls-3" d="M260.37,605.25c-2.01-1.66-5-2.49-8.97-2.49h-10.53v19.26h10.53c3.97,0,6.96-.84,8.97-2.53,2.01-1.69,3.01-4.05,3.01-7.1s-1-5.47-3.01-7.14Z"/>
  <path class="cls-1" d="M504.91,509.14c0,3.06,2.59,5.11,6.91,5.11,4.09,0,7.62-1.89,9.03-5.74v-4.32h-8.4c-5.73,0-7.54,2.12-7.54,4.95Z"/>
  <path class="cls-3" d="M353.95,622.09h10.53c3.97,0,6.96-.86,8.97-2.56,2.01-1.71,3.01-4.09,3.01-7.14s-1-5.47-3.01-7.14c-2.01-1.66-5-2.49-8.97-2.49h-10.53v19.33Z"/>
  <path class="cls-3" d="M7.3,436.69c3.83,41.8,14.2,82.23,30.6,120.08h724.21c16.4-37.86,26.77-78.28,30.6-120.08H7.3Z"/>
  <path class="cls-1" d="M465.69,46.62c.39.59.89,1.08,1.49,1.47.61.39,1.3.67,2.08.82.78.15,1.52.16,2.23.03.71-.13,1.36-.4,1.94-.8.58-.4,1.07-.89,1.47-1.49s.68-1.3.83-2.09c.16-.79.16-1.54.02-2.25-.14-.71-.41-1.35-.8-1.94-.39-.59-.89-1.08-1.49-1.47s-1.3-.67-2.08-.82-1.52-.16-2.22-.03c-.7.14-1.35.4-1.94.8-.59.4-1.08.89-1.48,1.49s-.68,1.3-.83,2.09c-.15.78-.16,1.52-.02,2.24.14.71.41,1.36.79,1.95Z"/>
  <polygon class="cls-1" points="299.01 742.32 304.68 743.94 303.73 736.53 299.01 742.32"/>
  <path class="cls-3" d="M316.92,605.25c-2.01-1.66-5-2.49-8.97-2.49h-10.53v19.26h10.53c3.97,0,6.96-.84,8.97-2.53,2.01-1.69,3.01-4.05,3.01-7.1s-1-5.47-3.01-7.14Z"/>
  <path class="cls-1" d="M644.65,489.03c-6.13,0-10.84,4.4-10.84,11.71s4.71,11.7,10.84,11.7,10.76-4.4,10.76-11.7-4.63-11.71-10.76-11.71Z"/>
  <path class="cls-3" d="M437.38,607.15c-1.52-1.55-3.33-2.74-5.41-3.57-2.08-.83-4.34-1.25-6.79-1.25s-4.7.42-6.76,1.25c-2.06.83-3.86,2.02-5.4,3.57s-2.75,3.35-3.6,5.41c-.86,2.06-1.28,4.33-1.28,6.83s.43,4.71,1.28,6.79c.86,2.08,2.04,3.89,3.57,5.44,1.52,1.55,3.33,2.74,5.41,3.57,2.08.83,4.34,1.25,6.79,1.25s4.71-.42,6.79-1.25c2.08-.83,3.88-2.02,5.41-3.57,1.52-1.55,2.71-3.35,3.57-5.4s1.28-4.33,1.28-6.83-.43-4.77-1.28-6.83c-.86-2.06-2.04-3.86-3.57-5.41Z"/>
  <path class="cls-2" d="M682.84,117.16C607.29,41.61,506.84,0,400,0S192.71,41.61,117.16,117.16C41.61,192.71,0,293.16,0,400s41.61,207.29,117.16,282.84c75.55,75.55,176,117.16,282.84,117.16s207.29-41.61,282.84-117.16c75.55-75.55,117.16-176,117.16-282.84s-41.61-207.29-117.16-282.84ZM121.12,678.88c-34.24-34.24-61.38-73.67-80.75-116.51h719.25c-19.36,42.84-46.51,82.27-80.75,116.51-74.49,74.49-173.53,115.51-278.88,115.51s-204.39-41.02-278.88-115.51ZM400,5.6c105.35,0,204.39,41.02,278.88,115.52,74.49,74.49,115.52,173.53,115.52,278.88,0,10.43-.42,20.79-1.22,31.08h-58.55c.72-9,1.11-18.1,1.11-27.29,0-185.58-150.45-336.03-336.03-336.03S63.68,218.21,63.68,403.79c0,9.19.39,18.28,1.11,27.29H6.82c-.8-10.29-1.22-20.65-1.22-31.08,0-105.35,41.02-204.39,115.51-278.88C195.61,46.63,294.65,5.6,400,5.6ZM762.1,556.77H37.9c-16.4-37.86-26.77-78.28-30.6-120.08h785.4c-3.83,41.8-14.2,82.23-30.6,120.08ZM242.85,209.42s24.59-3.96,29.15-41.76c0,0,53.15,3.93,77.21,23.73-11.7-29.11,1.17-80.65,1.17-80.65,37.67,6.76,48.64-14.9,48.64-14.9,0,0,11.37,22.17,48.7,14.83,0,0,12.69,51.79,1.3,80.8,24.05-20.13,77.03-23.8,77.03-23.8,5.21,37.94,29.19,41.68,29.19,41.68,0,0-17.56,17.67.95,50.92,0,0-45.3,28.08-76.4,26.21,26.56,16.67,46.43,65.94,46.43,65.94-34.45,16.69-30.6,40.66-30.6,40.66,0,0-22.22-11.25-48.11,16.64,0,0-40.69-34.43-48.53-64.6-7.64,30.43-48.33,64.55-48.33,64.55-26.51-27.63-48.1-16.55-48.1-16.55,0,0,3.83-24.62-30.68-40.64,0,0,20.16-49.36,46.42-66.14-31.29,2.14-76.3-26.04-76.3-26.04,18.07-33.76.87-50.89.87-50.89ZM478.32,141.49c0-5.65,4.59-10.23,10.23-10.23s10.22,4.59,10.22,10.23-4.59,10.23-10.22,10.23-10.23-4.59-10.23-10.23Z"/>
  <path class="cls-2" d="M363.7,194.32c1.01,1.34,2,2.27,2.97,3.12.4.35.82.69,1.26,1.01,11.52,8.54,20.02,15.16,26.23,19.8-18.47-37.24-14.1-76.98-8.42-99.72-10.32,2.55-19.14,3.49-25.85,1.99-2.58,20.66-8.14,49.92,1.86,70.54.55,1.14,1.19,2.25,1.96,3.26Z"/>
  <path class="cls-2" d="M359.63,205.69c10.48,32.25,16.16,46.58,16.16,46.58,0,0-12.7,8.37-40.39,28.36-.1.08-.2.15-.31.22,33.89,0,49.26-.98,49.26-.98,0,0,4.03,14.67,14.47,47.2.04.12.08.24.12.36,10.47-32.26,14.29-47.18,14.29-47.18,0,0,15.19.69,49.34.81.13,0,.25,0,.38,0-27.42-19.93-40.43-28.18-40.43-28.18,0,0,5.35-14.24,16.02-46.7.04-.12.07-.24.11-.35-27.41,19.94-39.28,29.76-39.28,29.76,0,0-11.88-9.49-39.44-29.67-.1-.07-.2-.15-.3-.22Z"/>
  <path class="cls-2" d="M529.56,203.72c-5.61-9.03-9.23-17.14-9.88-23.99-20.44,3.93-49.97,7.68-66.47,23.57-.92.88-1.77,1.83-2.5,2.87h0c-.97,1.38-1.54,2.6-2.05,3.79-.21.49-.4,1-.57,1.51-4.56,13.6-8.22,23.74-10.71,31.08,29.69-29.08,68.82-37.2,92.19-38.83Z"/>
  <path class="cls-2" d="M387.99,328.4c-4.3-13.68-7.3-24.04-9.59-31.44-6.93,40.99-33.82,70.57-51.77,85.63,9.85,4,17.54,8.43,22.08,13.59,14.23-15.19,35.91-35.6,39.93-58.16.22-1.25.35-2.52.33-3.79-.03-1.68-.28-3.01-.57-4.27-.12-.52-.26-1.04-.42-1.55Z"/>
  <path class="cls-2" d="M466.34,292.64c-1.61-.49-2.95-.66-4.24-.78-.53-.05-1.07-.07-1.61-.08-14.33-.14-25.11-.49-32.85-.59,36.82,19.26,56.63,53.98,65.39,75.72,6.85-8.13,13.44-14.09,19.75-16.82-10.05-18.23-22.74-45.18-42.94-55.97-1.12-.6-2.29-1.11-3.5-1.49Z"/>
  <path class="cls-2" d="M491.38,138.76c0-1.36-1.21-1.76-2.46-1.76h-2.33v3.63h2.33c1.5,0,2.46-.31,2.46-1.87Z"/>
  <path class="cls-2" d="M321.84,274.33c1.26-.18,2.51-.45,3.71-.86,1.59-.55,2.78-1.19,3.89-1.86.46-.28.91-.57,1.35-.88,11.68-8.32,20.6-14.37,26.92-18.84-41.1,6.07-77.53-10.37-97.39-22.8-.76,10.61-2.6,19.3-6.1,25.22,18.84,8.84,44.94,23.17,67.62,20.03Z"/>
  <path class="cls-2" d="M496.83,141.48c0-4.9-3.54-8.7-8.25-8.7s-8.3,3.8-8.3,8.7,3.54,8.7,8.3,8.7,8.25-3.8,8.25-8.7ZM486.58,142.16v5.3h-1.96v-11.99h4.6c2.74,0,4.1,1.1,4.1,3.37,0,1.93-1.21,3.32-3.09,3.32l3.4,5.3h-2.07l-3.34-5.3h-1.64Z"/>
  <path class="cls-2" d="M226.67,78.72c.55.32,1.15.5,1.78.53.63.03,1.29-.01,1.97-.14.68-.13,1.35-.28,2.01-.45.66-.17,1.27-.31,1.83-.41.56-.1,1.06-.1,1.51,0,.44.1.77.36.99.79.18.34.23.71.16,1.09s-.29.77-.66,1.16c-.37.39-.92.78-1.65,1.16-.86.45-1.78.74-2.75.87-.97.14-1.85.13-2.64-.02l.15,2.47c.84.19,1.84.18,2.99-.02s2.28-.59,3.37-1.15c1.27-.66,2.23-1.4,2.87-2.21.64-.81,1-1.64,1.08-2.48.08-.84-.08-1.63-.46-2.37-.38-.73-.84-1.26-1.39-1.58-.55-.32-1.13-.5-1.76-.53-.63-.03-1.28.03-1.96.16-.68.13-1.35.29-2.02.46s-1.28.31-1.84.41c-.56.11-1.06.11-1.49,0-.43-.1-.76-.37-.98-.79-.19-.36-.25-.73-.19-1.12s.27-.78.62-1.18c.36-.4.89-.79,1.61-1.16.61-.32,1.29-.56,2.05-.72.76-.16,1.54-.22,2.36-.18l-.23-2.43c-.82-.08-1.69-.02-2.62.2-.93.21-1.82.54-2.65.97-1.27.66-2.23,1.4-2.86,2.2-.63.81-.99,1.63-1.07,2.47s.08,1.64.47,2.39c.38.74.85,1.27,1.41,1.59Z"/>
  <path class="cls-2" d="M248.23,78.13l-.08-3.95,7.16-3.23,2.92,2.67,2.78-1.25-12.91-11.4-2.62,1.18v17.21s2.75-1.23,2.75-1.23ZM253.47,69.27l-5.37,2.42-.14-7.47,5.51,5.05Z"/>
  <polygon class="cls-2" points="269.34 69.08 267.18 63.47 274.25 60.74 273.36 58.44 266.29 61.17 264.57 56.71 272.54 53.64 271.66 51.36 260.97 55.48 266.62 70.12 269.34 69.08"/>
  <polygon class="cls-2" points="294.98 60.07 294.23 57.75 285.81 60.49 284.46 56.38 291.67 54.03 290.92 51.75 283.72 54.1 282.45 50.22 290.57 47.57 289.82 45.25 278.93 48.8 283.79 63.72 294.98 60.07"/>
  <path class="cls-2" d="M300.35,53.66c.66.85,1.45,1.52,2.36,2.03s1.92.82,3.01.94,2.21.03,3.37-.28c1.26-.33,2.34-.85,3.25-1.56.91-.71,1.61-1.56,2.1-2.58l-2.28-1.25c-.39.75-.88,1.37-1.48,1.84-.6.48-1.3.82-2.09,1.03-.8.21-1.55.27-2.28.19s-1.39-.3-2-.65c-.61-.35-1.14-.81-1.58-1.39-.44-.58-.76-1.26-.97-2.04-.21-.78-.26-1.53-.17-2.25s.32-1.38.68-1.99c.36-.61.83-1.13,1.42-1.56.59-.44,1.28-.76,2.07-.97s1.57-.26,2.33-.14c.76.12,1.49.4,2.2.84l1.37-2.19c-.93-.65-1.97-1.05-3.1-1.21-1.14-.15-2.33-.06-3.57.26-1.17.31-2.19.79-3.07,1.43-.88.64-1.6,1.41-2.15,2.31s-.9,1.87-1.05,2.94c-.15,1.06-.08,2.15.22,3.28.3,1.13.78,2.11,1.44,2.96Z"/>
  <path class="cls-2" d="M319.97,48.62c.6.88,1.35,1.59,2.24,2.15.89.56,1.88.93,2.97,1.13,1.09.19,2.24.16,3.44-.08,1.19-.24,2.24-.66,3.17-1.26s1.69-1.33,2.29-2.18c.6-.85,1.02-1.81,1.23-2.86.21-1.05.21-2.15-.02-3.29s-.65-2.15-1.25-3.03c-.6-.88-1.35-1.59-2.24-2.15-.89-.56-1.88-.93-2.96-1.13-1.08-.19-2.23-.17-3.43.08-1.19.24-2.25.66-3.18,1.26s-1.7,1.33-2.3,2.19c-.6.86-1.01,1.81-1.23,2.86-.22,1.04-.21,2.14.02,3.28s.65,2.15,1.25,3.03ZM321.57,42.76c.14-.71.4-1.35.8-1.95s.89-1.08,1.48-1.48c.6-.4,1.29-.67,2.06-.83.78-.16,1.52-.17,2.23-.04s1.36.39,1.94.78c.58.39,1.08.89,1.48,1.48.4.6.68,1.29.84,2.08.16.79.17,1.54.03,2.25-.14.71-.4,1.35-.79,1.94-.38.59-.88,1.08-1.48,1.48-.61.4-1.3.67-2.07.83-.78.16-1.52.17-2.23.04-.71-.13-1.36-.39-1.94-.78-.58-.39-1.08-.89-1.48-1.5-.4-.6-.68-1.29-.84-2.07-.16-.79-.17-1.54-.03-2.25Z"/>
  <polygon class="cls-2" points="346.67 48.4 345.23 37.88 355.25 47.23 357.62 46.9 355.49 31.35 352.62 31.74 354.07 42.27 344.05 32.92 341.67 33.25 343.81 48.8 346.67 48.4"/>
  <polygon class="cls-2" points="367.97 32.62 369.03 45.81 371.94 45.57 370.87 32.39 376.06 31.97 375.86 29.51 362.58 30.59 362.78 33.04 367.97 32.62"/>
  <path class="cls-2" d="M386.29,44.74l-.13-4.57,3.54-.1c.21,0,.41-.03.61-.04l3.33,4.51,3.14-.09-3.75-5.05c.08-.03.16-.06.23-.09.98-.47,1.73-1.12,2.24-1.97.51-.84.76-1.84.72-2.99-.03-1.15-.33-2.14-.89-2.96-.56-.82-1.35-1.44-2.35-1.86-1.01-.42-2.2-.61-3.59-.57l-6.45.18.44,15.69,2.91-.08ZM392.25,32.15c.67.52,1.01,1.28,1.04,2.28.03.99-.28,1.77-.91,2.34-.63.57-1.59.88-2.88.91l-3.41.1-.18-6.25,3.41-.1c1.28-.04,2.26.21,2.93.73Z"/>
  <path class="cls-2" d="M406.26,40.92l7.85.22,1.46,3.67,3.05.09-6.63-15.89-2.87-.08-7.51,15.49,3,.09,1.66-3.59ZM410.44,31.88l2.75,6.95-5.89-.17,3.13-6.78Z"/>
  <path class="cls-2" d="M425.83,43.36c.69.79,1.53,1.42,2.52,1.9.99.48,2.08.77,3.27.88,1.3.11,2.49-.01,3.59-.37,1.09-.36,2.04-.93,2.85-1.72l-1.72-1.95c-.62.58-1.29.99-2.02,1.23-.73.25-1.5.33-2.32.26-.82-.07-1.56-.27-2.21-.59s-1.21-.76-1.67-1.29c-.46-.53-.79-1.15-1.01-1.84-.22-.69-.29-1.44-.22-2.25.07-.8.27-1.53.6-2.18.33-.65.77-1.19,1.31-1.64s1.16-.78,1.86-.99c.7-.21,1.46-.28,2.28-.21.82.07,1.57.29,2.24.65.67.36,1.27.88,1.78,1.54l2.03-1.6c-.66-.93-1.49-1.65-2.51-2.18-1.02-.53-2.17-.85-3.45-.96-1.21-.1-2.33,0-3.38.31-1.05.31-1.98.79-2.8,1.45s-1.48,1.46-1.98,2.41c-.5.95-.8,2-.9,3.16-.1,1.16.02,2.25.35,3.27.33,1.02.84,1.92,1.54,2.71Z"/>
  <polygon class="cls-2" points="447.64 47.7 450.53 48.1 452.34 35 457.5 35.71 457.84 33.27 444.64 31.44 444.31 33.88 449.46 34.6 447.64 47.7"/>
  <path class="cls-2" d="M463.28,48c.61.86,1.38,1.58,2.31,2.18.93.59,2,1.01,3.2,1.25,1.19.23,2.32.25,3.41.05,1.08-.2,2.07-.58,2.95-1.13.89-.56,1.63-1.28,2.23-2.17.6-.89,1.01-1.9,1.24-3.05.22-1.14.23-2.24,0-3.28-.22-1.04-.64-1.99-1.25-2.85-.61-.86-1.38-1.58-2.3-2.18-.93-.59-1.99-1.01-3.19-1.24-1.19-.23-2.33-.25-3.42-.05-1.09.2-2.08.58-2.97,1.14-.89.57-1.63,1.29-2.23,2.17-.6.88-1.01,1.89-1.24,3.04s-.23,2.24,0,3.28.64,1.99,1.25,2.85ZM464.92,42.44c.16-.79.43-1.49.83-2.09s.89-1.1,1.48-1.49c.59-.39,1.23-.66,1.94-.8.7-.14,1.45-.13,2.22.03s1.47.43,2.08.82,1.11.88,1.49,1.47c.39.59.65,1.23.8,1.94.14.71.14,1.45-.02,2.25-.16.79-.43,1.49-.83,2.09s-.89,1.1-1.47,1.49c-.58.4-1.23.66-1.94.8-.71.13-1.46.13-2.23-.03-.78-.15-1.47-.43-2.08-.82-.61-.39-1.11-.88-1.49-1.47-.39-.59-.65-1.24-.79-1.95-.14-.71-.14-1.46.02-2.24Z"/>
  <path class="cls-2" d="M488.02,50.79l3.43.89c.2.05.4.09.59.13l1.94,5.26,3.04.79-2.19-5.89c.08-.01.17-.01.25-.02,1.07-.18,1.97-.6,2.7-1.26.73-.67,1.24-1.56,1.53-2.67.29-1.11.28-2.14-.03-3.09-.31-.95-.89-1.76-1.74-2.45-.85-.68-1.95-1.2-3.29-1.55l-6.25-1.63-3.96,15.19,2.82.73,1.15-4.43ZM496.1,44.79c.49.68.61,1.51.36,2.48-.25.95-.76,1.62-1.53,1.99-.77.37-1.77.39-3.02.07l-3.3-.86,1.58-6.05,3.3.86c1.24.32,2.11.83,2.61,1.51Z"/>
  <path class="cls-2" d="M504.37,60.27c.49.15.95.11,1.4-.12s.75-.6.91-1.12c.17-.54.13-1.03-.12-1.45-.24-.43-.61-.71-1.09-.86-.49-.15-.95-.12-1.39.1-.44.22-.75.6-.91,1.14-.16.51-.12.99.12,1.43.24.44.6.74,1.09.88Z"/>
  <path class="cls-2" d="M514.47,61.17c.47.93,1.12,1.76,1.96,2.47.83.71,1.82,1.27,2.94,1.67,1.23.43,2.41.61,3.56.54,1.15-.07,2.21-.39,3.19-.95l-1.18-2.32c-.74.4-1.5.63-2.26.69-.76.06-1.54-.05-2.31-.33-.78-.27-1.44-.65-1.99-1.13-.55-.48-.98-1.04-1.29-1.67-.31-.63-.48-1.31-.52-2.04-.04-.73.08-1.47.35-2.23.27-.76.64-1.41,1.13-1.96s1.04-.96,1.68-1.26,1.32-.46,2.05-.49c.73-.03,1.48.1,2.26.37.78.27,1.44.67,2,1.19.56.52,1.01,1.17,1.34,1.93l2.36-1.04c-.4-1.06-1.03-1.98-1.89-2.74-.86-.77-1.89-1.37-3.1-1.79-1.14-.4-2.26-.59-3.35-.55-1.09.04-2.12.27-3.08.7-.96.43-1.8,1.04-2.52,1.83-.72.79-1.28,1.74-1.66,2.84-.39,1.1-.55,2.18-.48,3.25s.34,2.07.81,3.01Z"/>
  <path class="cls-2" d="M535.17,70.7c.79.77,1.75,1.4,2.88,1.87,1.12.47,2.22.72,3.32.74,1.1.03,2.14-.14,3.12-.51.98-.36,1.86-.92,2.62-1.67s1.38-1.66,1.83-2.73c.45-1.07.68-2.14.67-3.21s-.22-2.08-.64-3.04-1.02-1.83-1.81-2.6c-.79-.77-1.74-1.39-2.87-1.87-1.12-.47-2.23-.72-3.33-.75s-2.15.14-3.14.52-1.86.93-2.62,1.67c-.77.74-1.38,1.65-1.83,2.72s-.68,2.14-.67,3.21.22,2.08.64,3.04c.42.96,1.03,1.83,1.82,2.6ZM536.09,62.98c.31-.74.73-1.37,1.24-1.87s1.1-.89,1.75-1.16c.66-.27,1.34-.39,2.06-.38.72.01,1.44.17,2.17.48.73.31,1.35.72,1.87,1.22.52.51.9,1.09,1.16,1.74.26.65.39,1.34.39,2.06,0,.72-.16,1.45-.48,2.2s-.73,1.37-1.24,1.87c-.51.51-1.09.89-1.74,1.16-.65.27-1.34.4-2.06.39s-1.45-.17-2.18-.48c-.73-.31-1.35-.72-1.87-1.23s-.9-1.09-1.16-1.74c-.26-.65-.39-1.34-.38-2.07,0-.73.16-1.46.47-2.19Z"/>
  <polygon class="cls-2" points="559.42 70.68 560.22 80.56 561.38 81.15 569.86 75.78 565.2 85.08 567.66 86.32 574.7 72.3 572.56 71.22 562.41 77.75 561.52 65.66 559.38 64.58 552.32 78.59 554.8 79.84 559.42 70.68"/>
  <path class="cls-3" d="M318.28,286.35c-26.26,16.78-46.42,66.14-46.42,66.14,34.51,16.02,30.68,40.64,30.68,40.64,0,0,21.6-11.08,48.1,16.55,0,0,40.69-34.12,48.33-64.55,7.84,30.17,48.53,64.6,48.53,64.6,25.89-27.89,48.11-16.64,48.11-16.64,0,0-3.86-23.97,30.6-40.66,0,0-19.86-49.27-46.43-65.94,31.1,1.87,76.4-26.21,76.4-26.21-18.51-33.26-.95-50.92-.95-50.92,0,0-23.98-3.74-29.19-41.68,0,0-52.97,3.68-77.03,23.8,11.39-29.01-1.3-80.8-1.3-80.8-37.33,7.34-48.7-14.83-48.7-14.83,0,0-10.96,21.66-48.64,14.9,0,0-12.87,51.54-1.17,80.65-24.06-19.8-77.21-23.73-77.21-23.73-4.56,37.79-29.15,41.76-29.15,41.76,0,0,17.2,17.13-.87,50.89,0,0,45.02,28.18,76.3,26.04ZM388.65,338.03c-4.02,22.56-25.71,42.96-39.93,58.16-4.54-5.16-12.24-9.59-22.08-13.59,17.95-15.06,44.84-44.64,51.77-85.63,2.29,7.4,5.29,17.76,9.59,31.44.16.51.3,1.03.42,1.55.29,1.26.54,2.59.57,4.27.02,1.27-.11,2.54-.33,3.79ZM512.78,350.1c-6.31,2.73-12.9,8.68-19.75,16.82-8.76-21.74-28.57-56.46-65.39-75.72,7.74.1,18.51.45,32.85.59.53,0,1.07.03,1.61.08,1.29.12,2.63.29,4.24.78,1.21.37,2.38.89,3.5,1.49,20.2,10.79,32.9,37.74,42.94,55.97ZM448.09,211.47c.17-.51.36-1.01.57-1.51.51-1.19,1.09-2.41,2.05-3.79h0c.73-1.04,1.58-1.99,2.5-2.87,16.5-15.89,46.04-19.64,66.47-23.57.64,6.85,4.27,14.96,9.88,23.99-23.37,1.62-62.5,9.74-92.19,38.83,2.49-7.34,6.15-17.48,10.71-31.08ZM399.37,235.59s11.86-9.82,39.28-29.76c-.04.12-.08.24-.11.35-10.66,32.46-16.02,46.7-16.02,46.7,0,0,13.01,8.25,40.43,28.18-.13,0-.25,0-.38,0-34.15-.12-49.34-.81-49.34-.81,0,0-3.82,14.92-14.29,47.18-.04-.12-.08-.24-.12-.36-10.44-32.53-14.47-47.2-14.47-47.2,0,0-15.37.97-49.26.98.1-.07.21-.15.31-.22,27.7-19.99,40.39-28.36,40.39-28.36,0,0-5.68-14.32-16.16-46.58.1.08.2.15.3.22,27.56,20.18,39.44,29.67,39.44,29.67ZM359.88,120.53c6.71,1.5,15.54.56,25.85-1.99-5.68,22.74-10.05,62.48,8.42,99.72-6.2-4.64-14.71-11.26-26.23-19.8-.43-.32-.85-.66-1.26-1.01-.97-.85-1.96-1.78-2.97-3.12-.76-1.02-1.4-2.12-1.96-3.26-10-20.61-4.44-49.88-1.86-70.54ZM260.31,229.08c19.86,12.43,56.28,28.87,97.39,22.8-6.33,4.47-15.24,10.52-26.92,18.84-.44.31-.89.61-1.35.88-1.11.66-2.3,1.31-3.89,1.86-1.2.41-2.45.68-3.71.86-22.69,3.15-48.78-11.19-67.62-20.03,3.5-5.92,5.33-14.61,6.1-25.22Z"/>
  <path class="cls-3" d="M498.77,141.49c0-5.65-4.59-10.23-10.22-10.23s-10.23,4.59-10.23,10.23,4.6,10.23,10.23,10.23,10.22-4.59,10.22-10.23ZM480.28,141.48c0-4.9,3.6-8.7,8.3-8.7s8.25,3.8,8.25,8.7-3.54,8.7-8.25,8.7-8.3-3.8-8.3-8.7Z"/>
  <path class="cls-3" d="M493.64,147.47l-3.4-5.3c1.87,0,3.09-1.39,3.09-3.32,0-2.27-1.36-3.37-4.1-3.37h-4.6v11.99h1.96v-5.3h1.64l3.34,5.3h2.07ZM486.6,140.63v-3.63h2.33c1.24,0,2.46.4,2.46,1.76,0,1.56-.96,1.87-2.46,1.87h-2.33Z"/>
  <path class="cls-2" d="M188,595.13l-21.83,48.5h9.28l4.8-11.22h24.26l4.82,11.22h9.42l-21.9-48.5h-8.87ZM183.28,625.34l9.08-21.23,9.12,21.23h-18.2Z"/>
  <path class="cls-2" d="M262.87,597.21c-3.07-1.39-6.76-2.08-11.05-2.08h-19.96v48.5h9.01v-14h10.95c4.3,0,7.98-.69,11.05-2.08,3.07-1.39,5.44-3.37,7.1-5.96,1.66-2.59,2.49-5.66,2.49-9.22s-.83-6.63-2.49-9.21c-1.66-2.59-4.03-4.57-7.1-5.96ZM260.37,619.49c-2.01,1.69-5,2.53-8.97,2.53h-10.53v-19.26h10.53c3.97,0,6.96.83,8.97,2.49,2.01,1.66,3.01,4.04,3.01,7.14s-1,5.42-3.01,7.1Z"/>
  <path class="cls-2" d="M319.41,597.21c-3.07-1.39-6.76-2.08-11.05-2.08h-19.96v48.5h9.01v-14h10.95c4.3,0,7.98-.69,11.05-2.08s5.44-3.37,7.1-5.96c1.66-2.59,2.49-5.66,2.49-9.22s-.83-6.63-2.49-9.21c-1.66-2.59-4.03-4.57-7.1-5.96ZM316.92,619.49c-2.01,1.69-5,2.53-8.97,2.53h-10.53v-19.26h10.53c3.97,0,6.96.83,8.97,2.49,2.01,1.66,3.01,4.04,3.01,7.14s-1,5.42-3.01,7.1Z"/>
  <path class="cls-2" d="M375.23,627.72c.24-.09.49-.17.72-.27,3.07-1.36,5.44-3.33,7.1-5.89,1.66-2.56,2.49-5.62,2.49-9.18s-.83-6.63-2.49-9.21c-1.66-2.59-4.03-4.57-7.1-5.96-3.07-1.39-6.76-2.08-11.05-2.08h-19.96v48.5h9.01v-14.14h10.95c.65,0,1.25-.05,1.87-.08l9.9,14.21h9.7l-11.15-15.91ZM373.46,605.25c2.01,1.66,3.01,4.04,3.01,7.14s-1,5.43-3.01,7.14c-2.01,1.71-5,2.56-8.97,2.56h-10.53v-19.33h10.53c3.97,0,6.96.83,8.97,2.49Z"/>
  <path class="cls-2" d="M443.89,601.54c-2.35-2.24-5.12-3.98-8.28-5.23-3.16-1.25-6.64-1.87-10.43-1.87s-7.21.62-10.39,1.87c-3.19,1.25-5.96,2.99-8.32,5.23-2.35,2.24-4.18,4.87-5.47,7.9-1.29,3.03-1.94,6.34-1.94,9.94s.65,6.92,1.94,9.94c1.29,3.03,3.12,5.66,5.47,7.9,2.36,2.24,5.13,3.98,8.32,5.23,3.19,1.25,6.67,1.87,10.46,1.87s7.19-.62,10.36-1.87c3.16-1.25,5.93-2.98,8.28-5.2,2.36-2.22,4.18-4.85,5.47-7.9,1.29-3.05,1.94-6.38,1.94-9.98s-.65-6.92-1.94-9.94c-1.29-3.02-3.12-5.66-5.47-7.9ZM440.95,626.21c-.86,2.06-2.04,3.86-3.57,5.4-1.52,1.55-3.33,2.74-5.41,3.57-2.08.83-4.34,1.25-6.79,1.25s-4.71-.42-6.79-1.25c-2.08-.83-3.88-2.02-5.41-3.57-1.52-1.55-2.71-3.36-3.57-5.44-.86-2.08-1.28-4.34-1.28-6.79s.43-4.77,1.28-6.83c.86-2.06,2.06-3.86,3.6-5.41s3.35-2.74,5.4-3.57c2.06-.83,4.31-1.25,6.76-1.25s4.71.42,6.79,1.25c2.08.83,3.88,2.02,5.41,3.57,1.52,1.55,2.71,3.35,3.57,5.41.86,2.06,1.28,4.33,1.28,6.83s-.43,4.77-1.28,6.83Z"/>
  <polygon class="cls-2" points="489.49 643.64 510.62 595.13 501.61 595.13 485.31 632.52 469.19 595.13 459.42 595.13 480.62 643.64 489.49 643.64"/>
  <polygon class="cls-2" points="531.69 622.71 555.11 622.71 555.11 615.29 531.69 615.29 531.69 602.68 558.09 602.68 558.09 595.13 522.68 595.13 522.68 643.64 559.06 643.64 559.06 636.08 531.69 636.08 531.69 622.71"/>
  <path class="cls-2" d="M611.09,598.18c-3.97-2.03-8.59-3.05-13.86-3.05h-21.2v48.5h21.2c5.27,0,9.89-1.02,13.86-3.05,3.97-2.03,7.07-4.86,9.29-8.49,2.22-3.63,3.33-7.86,3.33-12.72s-1.11-9.15-3.33-12.75c-2.22-3.6-5.31-6.42-9.29-8.45ZM612.44,628.11c-1.45,2.49-3.51,4.43-6.17,5.82-2.66,1.39-5.81,2.08-9.46,2.08h-11.78v-33.26h11.78c3.65,0,6.8.69,9.46,2.08,2.66,1.39,4.71,3.32,6.17,5.79,1.45,2.47,2.18,5.39,2.18,8.77s-.73,6.24-2.18,8.73Z"/>
  <g>
    <path class="cls-2" d="M90.89,532.38c-6.78,0-12.49-1.52-17.12-4.55-4.63-3.03-7.89-7.16-9.78-12.38l11.55-6.75c2.67,6.98,7.93,10.47,15.75,10.47,3.78,0,6.56-.68,8.32-2.05,1.76-1.37,2.64-3.1,2.64-5.19,0-2.41-1.08-4.29-3.23-5.63-2.15-1.34-6-2.79-11.55-4.35-3.07-.91-5.66-1.83-7.78-2.74-2.12-.91-4.24-2.14-6.36-3.67-2.12-1.53-3.74-3.47-4.84-5.82-1.11-2.35-1.66-5.09-1.66-8.22,0-6.2,2.2-11.14,6.6-14.82,4.4-3.68,9.7-5.53,15.9-5.53,5.54,0,10.42,1.35,14.63,4.06,4.21,2.71,7.49,6.47,9.83,11.3l-11.35,6.56c-2.74-5.87-7.11-8.81-13.11-8.81-2.81,0-5.01.64-6.6,1.91-1.6,1.27-2.4,2.92-2.4,4.94,0,2.15.9,3.9,2.69,5.23,1.79,1.34,5.23,2.79,10.32,4.35,2.09.65,3.67,1.16,4.75,1.52,1.08.36,2.54.91,4.4,1.66,1.86.75,3.29,1.45,4.31,2.1,1.01.65,2.17,1.53,3.47,2.64,1.3,1.11,2.3,2.25,2.98,3.42.68,1.17,1.27,2.59,1.76,4.26.49,1.66.73,3.47.73,5.43,0,6.33-2.3,11.35-6.9,15.07-4.6,3.72-10.58,5.58-17.95,5.58Z"/>
    <path class="cls-2" d="M159.05,482.09h12.62v48.92h-12.62v-5.77c-3.78,4.76-9.1,7.14-15.95,7.14s-12.12-2.5-16.78-7.49c-4.66-4.99-7-11.11-7-18.35s2.33-13.36,7-18.35c4.66-4.99,10.26-7.48,16.78-7.48,6.85,0,12.17,2.38,15.95,7.14v-5.77ZM135.77,516.48c2.54,2.58,5.77,3.86,9.69,3.86s7.16-1.29,9.74-3.86c2.58-2.58,3.86-5.89,3.86-9.93s-1.29-7.35-3.86-9.93c-2.58-2.58-5.82-3.87-9.74-3.87s-7.14,1.29-9.69,3.87c-2.54,2.58-3.82,5.89-3.82,9.93s1.27,7.36,3.82,9.93Z"/>
    <path class="cls-2" d="M207.42,473.28c-6.91-.52-10.37,2.25-10.37,8.32v.49h10.37v12.13h-10.37v36.79h-12.62v-36.79h-7.05v-12.13h7.05v-.49c0-6.91,1.92-12.17,5.77-15.75,3.85-3.59,9.59-5.15,17.22-4.7v12.13Z"/>
    <path class="cls-2" d="M221.82,511.74c1.7,6.13,6.29,9.2,13.8,9.2,4.83,0,8.48-1.63,10.96-4.89l10.18,5.87c-4.83,6.98-11.94,10.47-21.33,10.47-8.09,0-14.58-2.45-19.47-7.34-4.89-4.89-7.34-11.06-7.34-18.49s2.41-13.52,7.24-18.44c4.83-4.92,11.02-7.39,18.59-7.39,7.17,0,13.09,2.48,17.76,7.44,4.66,4.96,7,11.09,7,18.39,0,1.63-.16,3.36-.49,5.19h-36.89ZM221.63,501.95h24.95c-.72-3.33-2.2-5.81-4.45-7.44-2.25-1.63-4.81-2.45-7.68-2.45-3.39,0-6.2.86-8.41,2.59-2.22,1.73-3.69,4.16-4.4,7.29Z"/>
    <path class="cls-2" d="M298.94,532.38c-10.31,0-18.82-3.43-25.54-10.27-6.72-6.85-10.08-15.3-10.08-25.34s3.36-18.57,10.08-25.39c6.72-6.82,15.23-10.22,25.54-10.22,6.2,0,11.92,1.45,17.17,4.35,5.25,2.9,9.34,6.83,12.28,11.79l-11.64,6.75c-1.7-3.07-4.11-5.46-7.24-7.19-3.13-1.73-6.65-2.59-10.57-2.59-6.65,0-12.02,2.09-16.1,6.26-4.08,4.18-6.12,9.59-6.12,16.24s2.04,11.97,6.12,16.14c4.08,4.18,9.44,6.26,16.1,6.26,3.91,0,7.45-.86,10.62-2.59,3.16-1.73,5.56-4.09,7.19-7.09l11.64,6.75c-2.94,4.96-7.01,8.89-12.23,11.79-5.22,2.9-10.96,4.35-17.22,4.35Z"/>
    <path class="cls-2" d="M373.6,524.9c-5.02,4.99-11.15,7.49-18.39,7.49s-13.36-2.5-18.35-7.49c-4.99-4.99-7.48-11.11-7.48-18.35s2.49-13.36,7.48-18.35c4.99-4.99,11.11-7.48,18.35-7.48s13.37,2.5,18.39,7.48c5.02,4.99,7.53,11.11,7.53,18.35s-2.51,13.36-7.53,18.35ZM345.76,516.24c2.51,2.54,5.66,3.82,9.44,3.82s6.95-1.27,9.49-3.82c2.54-2.54,3.82-5.77,3.82-9.69s-1.27-7.14-3.82-9.69c-2.54-2.54-5.71-3.82-9.49-3.82s-6.93,1.27-9.44,3.82c-2.51,2.54-3.77,5.77-3.77,9.69s1.25,7.14,3.77,9.69Z"/>
    <path class="cls-2" d="M412.83,480.72c5.35,0,9.77,1.79,13.26,5.38,3.49,3.59,5.23,8.55,5.23,14.87v30.04h-12.62v-28.47c0-3.26-.88-5.76-2.64-7.48-1.76-1.73-4.11-2.59-7.04-2.59-3.26,0-5.87,1.01-7.83,3.03-1.96,2.02-2.94,5.06-2.94,9.1v26.42h-12.62v-48.92h12.62v5.48c3.07-4.57,7.93-6.85,14.58-6.85Z"/>
    <path class="cls-2" d="M467.12,494.22h-11.06v20.35c0,1.7.42,2.94,1.27,3.72.85.78,2.09,1.22,3.72,1.32,1.63.1,3.65.08,6.07-.05v11.45c-8.68.98-14.79.16-18.35-2.45-3.56-2.61-5.33-7.27-5.33-13.99v-20.35h-8.51v-12.13h8.51v-9.88l12.62-3.82v13.7h11.06v12.13Z"/>
    <path class="cls-2" d="M487.46,490.5c1.17-3.13,3.11-5.48,5.82-7.04,2.71-1.57,5.72-2.35,9.05-2.35v14.09c-3.85-.46-7.29.33-10.32,2.35-3.03,2.02-4.55,5.38-4.55,10.08v23.38h-12.62v-48.92h12.62v8.41Z"/>
    <path class="cls-2" d="M544.22,482.09h12.62v48.92h-12.62v-5.77c-3.78,4.76-9.1,7.14-15.95,7.14s-12.12-2.5-16.78-7.49c-4.66-4.99-7-11.11-7-18.35s2.33-13.36,7-18.35c4.66-4.99,10.26-7.48,16.78-7.48,6.85,0,12.16,2.38,15.95,7.14v-5.77ZM520.93,516.48c2.54,2.58,5.77,3.86,9.69,3.86s7.16-1.29,9.74-3.86c2.58-2.58,3.86-5.89,3.86-9.93s-1.29-7.35-3.86-9.93c-2.58-2.58-5.82-3.87-9.74-3.87s-7.14,1.29-9.69,3.87c-2.54,2.58-3.82,5.89-3.82,9.93s1.27,7.36,3.82,9.93Z"/>
    <path class="cls-2" d="M587.27,532.38c-7.37,0-13.52-2.48-18.44-7.44-4.93-4.96-7.39-11.09-7.39-18.39s2.46-13.44,7.39-18.39c4.92-4.96,11.07-7.44,18.44-7.44,4.76,0,9.1,1.14,13.01,3.42,3.91,2.28,6.88,5.35,8.9,9.2l-10.86,6.36c-.98-2.02-2.46-3.62-4.45-4.79-1.99-1.17-4.22-1.76-6.7-1.76-3.78,0-6.92,1.26-9.39,3.77-2.48,2.51-3.72,5.72-3.72,9.64s1.24,7.03,3.72,9.54c2.48,2.51,5.61,3.77,9.39,3.77,2.54,0,4.81-.57,6.8-1.71,1.99-1.14,3.47-2.72,4.45-4.75l10.96,6.26c-2.15,3.85-5.19,6.93-9.1,9.25-3.91,2.31-8.25,3.47-13.01,3.47Z"/>
    <path class="cls-2" d="M643.61,494.22h-11.06v20.35c0,1.7.42,2.94,1.27,3.72.85.78,2.09,1.22,3.72,1.32,1.63.1,3.65.08,6.07-.05v11.45c-8.68.98-14.79.16-18.35-2.45-3.56-2.61-5.33-7.27-5.33-13.99v-20.35h-8.51v-12.13h8.51v-9.88l12.62-3.82v13.7h11.06v12.13Z"/>
    <path class="cls-2" d="M691.42,524.9c-5.02,4.99-11.15,7.49-18.39,7.49s-13.36-2.5-18.35-7.49c-4.99-4.99-7.48-11.11-7.48-18.35s2.49-13.36,7.48-18.35c4.99-4.99,11.11-7.48,18.35-7.48s13.37,2.5,18.39,7.48c5.02,4.99,7.53,11.11,7.53,18.35s-2.51,13.36-7.53,18.35ZM663.58,516.24c2.51,2.54,5.66,3.82,9.44,3.82s6.95-1.27,9.49-3.82c2.54-2.54,3.82-5.77,3.82-9.69s-1.27-7.14-3.82-9.69c-2.54-2.54-5.71-3.82-9.49-3.82s-6.93,1.27-9.44,3.82c-2.51,2.54-3.77,5.77-3.77,9.69s1.25,7.14,3.77,9.69Z"/>
    <path class="cls-2" d="M718.04,490.5c1.17-3.13,3.11-5.48,5.82-7.04,2.71-1.57,5.72-2.35,9.05-2.35v14.09c-3.85-.46-7.29.33-10.32,2.35-3.03,2.02-4.55,5.38-4.55,10.08v23.38h-12.62v-48.92h12.62v8.41Z"/>
    <path class="cls-2" d="M743.61,482.75h-2.64v5.75h-2.19v-5.75h-2.59v-1.78h7.42v1.78ZM753.15,488.5h-2.07v-5.34l-1.43,5.34h-1.7l-1.41-5.34v5.34h-2.07v-7.53h3.3l1.05,4.11,1.1-4.11h3.22v7.53Z"/>
  </g>
</svg>